<svg width="17" height="17" viewBox="0 0 17 17" fill="none" xmlns="http://www.w3.org/2000/svg">
<path d="M9.35 1.7C10.928 1.7 12.4414 2.32687 13.5573 3.44271C14.6731 4.55856 15.3 6.07196 15.3 7.65C15.3 7.87543 15.3896 8.09163 15.549 8.25104C15.7084 8.41045 15.9246 8.5 16.15 8.5C16.3754 8.5 16.5916 8.41045 16.751 8.25104C16.9104 8.09163 17 7.87543 17 7.65C17 5.62109 16.194 3.67529 14.7594 2.24063C13.3247 0.80598 11.3789 0 9.35 0C9.12456 0 8.90836 0.0895533 8.74896 0.248959C8.58955 0.408365 8.5 0.624566 8.5 0.85C8.5 1.07543 8.58955 1.29163 8.74896 1.45104C8.90836 1.61045 9.12456 1.7 9.35 1.7ZM16.7875 11.8235C16.7407 11.687 16.66 11.5647 16.553 11.4681C16.4459 11.3714 16.316 11.3036 16.1755 11.271L11.0755 10.1065C10.9371 10.0751 10.793 10.0789 10.6564 10.1175C10.5198 10.1561 10.395 10.2283 10.2935 10.3275C10.1745 10.438 10.166 10.4465 9.6135 11.5005C7.78022 10.6557 6.31124 9.18073 5.474 7.344C6.5535 6.8 6.562 6.8 6.6725 6.6725C6.7717 6.57097 6.8439 6.44622 6.8825 6.30962C6.92111 6.17302 6.92489 6.02893 6.8935 5.8905L5.729 0.85C5.6964 0.709492 5.62858 0.57959 5.53192 0.472525C5.43527 0.365459 5.31295 0.284752 5.1765 0.238C4.978 0.167101 4.77301 0.115855 4.5645 0.0849999C4.34966 0.0351859 4.13043 0.00671444 3.91 0C2.873 0 1.87848 0.411945 1.14521 1.14521C0.411945 1.87848 0 2.873 0 3.91C0.00449813 7.3803 1.38506 10.7072 3.83894 13.1611C6.29282 15.6149 9.61969 16.9955 13.09 17C13.6035 17 14.1119 16.8989 14.5863 16.7024C15.0607 16.5059 15.4917 16.2179 15.8548 15.8548C16.2179 15.4917 16.5059 15.0607 16.7024 14.5863C16.8989 14.1119 17 13.6035 17 13.09C17.0003 12.8737 16.9832 12.6576 16.949 12.444C16.9133 12.2329 16.8592 12.0253 16.7875 11.8235ZM13.09 15.3C10.0699 15.2977 7.17409 14.097 5.03854 11.9615C2.90299 9.82591 1.70225 6.93013 1.7 3.91C1.70224 3.32456 1.9358 2.76374 2.34977 2.34977C2.76374 1.9358 3.32456 1.70224 3.91 1.7H4.1905L5.1 5.644L4.641 5.882C3.91 6.2645 3.332 6.5705 3.638 7.2335C4.13629 8.64414 4.94256 9.92607 5.99822 10.9861C7.05389 12.0462 8.33245 12.8578 9.741 13.362C10.455 13.651 10.7355 13.1155 11.118 12.376L11.3645 11.9085L15.3 12.8095V13.09C15.2978 13.6754 15.0642 14.2363 14.6502 14.6502C14.2363 15.0642 13.6754 15.2978 13.09 15.3Z" fill="#0085CB"/>
</svg>
