<svg width="16" height="16" viewBox="0 0 16 16" fill="none" xmlns="http://www.w3.org/2000/svg">
<path d="M8.11642 15.0128C7.89191 15.0128 7.67553 14.9315 7.50686 14.7838C6.86986 14.2268 6.25574 13.7034 5.7139 13.2417L5.71112 13.2393C4.12256 11.8855 2.75077 10.7164 1.79632 9.56479C0.729391 8.27738 0.232422 7.05666 0.232422 5.72312C0.232422 4.4275 0.676698 3.23218 1.4833 2.35724C2.29954 1.47195 3.41953 0.984375 4.63733 0.984375C5.54753 0.984375 6.38108 1.27214 7.11482 1.8396C7.48509 2.12602 7.82071 2.47658 8.11642 2.88547C8.41223 2.47658 8.74776 2.12602 9.11815 1.8396C9.85189 1.27214 10.6854 0.984375 11.5956 0.984375C12.8133 0.984375 13.9334 1.47195 14.7497 2.35724C15.5563 3.23218 16.0004 4.4275 16.0004 5.72312C16.0004 7.05663 15.5036 8.27735 14.4366 9.56466C13.4822 10.7164 12.1105 11.8854 10.5222 13.239C9.97939 13.7015 9.36431 14.2257 8.72586 14.784C8.55714 14.9316 8.34058 15.0129 8.11642 15.0128ZM4.63733 1.90803C3.68059 1.90803 2.80168 2.28989 2.16228 2.98328C1.51339 3.68717 1.15596 4.66017 1.15596 5.72312C1.15596 6.84468 1.57279 7.84774 2.50742 8.97546C3.41075 10.0655 4.75439 11.2105 6.31012 12.5363L6.31299 12.5387C6.85686 13.0022 7.47341 13.5277 8.1151 14.0888C8.76063 13.5266 9.37814 13.0003 9.92309 12.5361C11.4787 11.2103 12.8222 10.0655 13.7255 8.97546C14.66 7.84774 15.0769 6.84468 15.0769 5.72312C15.0769 4.66014 14.7195 3.68714 14.0706 2.98328C13.4313 2.28989 12.5523 1.90803 11.5956 1.90803C10.8948 1.90803 10.2513 2.13085 9.68309 2.57017C9.17676 2.96187 8.82404 3.45703 8.61721 3.80349C8.5109 3.98165 8.32372 4.08799 8.11642 4.08799C7.90913 4.08799 7.72194 3.98165 7.6156 3.80349C7.40896 3.45703 7.05621 2.96187 6.54972 2.57017C5.98158 2.13085 5.33808 1.90803 4.63733 1.90803Z" fill="white"/>
</svg>
