<svg width="12" height="12" viewBox="0 0 12 12" fill="none" xmlns="http://www.w3.org/2000/svg">
<path d="M9 0H3C1.35015 0 0 1.34956 0 3V9C0 10.6499 1.35015 12 3 12H9C10.6499 12 12 10.6499 12 9V3C12 1.34956 10.6499 0 9 0ZM6 8.4999C4.61909 8.4999 3.49995 7.38029 3.49995 6C3.49995 4.61909 4.61909 3.49995 6 3.49995C7.38029 3.49995 8.50005 4.61909 8.50005 6C8.50005 7.38029 7.38029 8.4999 6 8.4999ZM9.25005 3.49995C8.83544 3.49995 8.50005 3.16409 8.50005 2.74995C8.50005 2.33581 8.83544 1.99995 9.25005 1.99995C9.66466 1.99995 10 2.33581 10 2.74995C10 3.16409 9.66466 3.49995 9.25005 3.49995Z" fill="black"/>
</svg>
