<svg width="13" height="13" viewBox="0 0 13 13" fill="none" xmlns="http://www.w3.org/2000/svg">
<path fill-rule="evenodd" clip-rule="evenodd" d="M4.82885 4.52985H7.24295V5.73235C7.5907 5.04075 8.4825 4.41935 9.82215 4.41935C12.3903 4.41935 13 5.79605 13 8.32195V13H10.4V8.8972C10.4 7.45875 10.0522 6.64755 9.16695 6.64755C7.9391 6.64755 7.42885 7.5218 7.42885 8.89655V13H4.82885V4.52985ZM0.3705 12.8895H2.9705V4.41935H0.3705V12.8895ZM3.34295 1.6575C3.34305 1.87543 3.29983 2.0912 3.2158 2.29228C3.13178 2.49336 3.00862 2.67573 2.8535 2.8288C2.53916 3.14121 2.11368 3.31607 1.6705 3.315C1.2281 3.3147 0.803602 3.14028 0.4888 2.82945C0.334237 2.67586 0.211501 2.49329 0.127623 2.29218C0.043746 2.09108 0.000376436 1.8754 0 1.6575C0 1.21745 0.1755 0.79625 0.48945 0.48555C0.803975 0.174303 1.22866 -0.000194487 1.67115 1.62672e-07C2.11445 1.62672e-07 2.53955 0.17485 2.8535 0.48555C3.1668 0.79625 3.34295 1.21745 3.34295 1.6575Z" fill="black"/>
</svg>
