<svg width="14" height="12" viewBox="0 0 14 12" fill="none" xmlns="http://www.w3.org/2000/svg">
<path d="M14 1.41176C13.4847 1.65882 12.9293 1.82118 12.3537 1.89882C12.9426 1.52471 13.3977 0.931765 13.6119 0.218823C13.0564 0.571765 12.4407 0.818824 11.7916 0.96C11.2629 0.352941 10.5201 0 9.67686 0C8.10421 0 6.81931 1.35529 6.81931 3.02824C6.81931 3.26824 6.84608 3.50118 6.89293 3.72C4.51052 3.59294 2.3891 2.38588 0.977056 0.557647C0.729446 1.00235 0.58891 1.52471 0.58891 2.07529C0.58891 3.12706 1.09082 4.05882 1.86711 4.58824C1.39197 4.58824 0.950287 4.44706 0.562142 4.23529V4.25647C0.562142 5.72471 1.55258 6.95294 2.86424 7.22824C2.44313 7.34979 2.00102 7.36671 1.57266 7.27765C1.75442 7.8794 2.1104 8.40594 2.59055 8.78325C3.0707 9.16055 3.65087 9.36967 4.24952 9.38118C3.23474 10.2285 1.97686 10.6866 0.6826 10.68C0.455067 10.68 0.227533 10.6659 0 10.6376C1.27151 11.4988 2.78394 12 4.40344 12C9.67686 12 12.5746 7.38353 12.5746 3.38118C12.5746 3.24706 12.5746 3.12 12.5679 2.98588C13.13 2.56235 13.6119 2.02588 14 1.41176Z" fill="black"/>
</svg>
